Coordinates
version=1
nRows=22
nColumns=24
inDegrees=yes

Units are S.I. units (second, meters, Newtons, ...)
Angles are in degrees.

endheader
time	pelvis_tilt	pelvis_list	pelvis_rotation	pelvis_tx	pelvis_ty	pelvis_tz	hip_flexion_r	hip_adduction_r	hip_rotation_r	knee_angle_r	ankle_angle_r	subtalar_angle_r	mtp_angle_r	hip_flexion_l	hip_adduction_l	hip_rotation_l	knee_angle_l	ankle_angle_l	subtalar_angle_l	mtp_angle_l	lumbar_extension	lumbar_bending	lumbar_rotation
      1.99000000	     25.00255242	     -2.85115236	      2.14406926	     -0.60238730	      1.01786365	     -0.00343594	    -39.16469104	      5.19605837	     -8.41816165	     -4.79328897	     14.87733176	     -5.51430770	     13.98595829	     -6.50692043	     -3.49243151	     -7.76510183	     -1.97756051	     -0.48223442	      1.38040739	     27.21590637	    -42.34187607	      2.47867131	      1.53164477
      1.99500000	     25.06309859	     -2.82517842	      2.05703391	     -0.59690345	      1.01731844	     -0.00397912	    -39.33787557	      5.03624915	     -8.48370956	     -5.23159051	     15.07373020	     -5.22863655	     13.77672634	     -6.51775571	     -3.39720500	     -7.74597596	     -2.36629648	     -0.88311120	      1.00448384	     27.30999951	    -42.39317109	      2.34875448	      1.51733947
      2.00000000	     25.12711123	     -2.79538964	      2.00087247	     -0.59142623	      1.01681226	     -0.00454574	    -39.48202283	      4.89037589	     -8.58875562	     -5.72935799	     15.24163281	     -5.01338373	     13.65857228	     -6.50010171	     -3.31362356	     -7.65694378	     -2.86038513	     -1.31479325	      0.61634671	     27.41631321	    -42.44713926	      2.22970143	      1.47146330
      2.00500000	     25.19653980	     -2.75597691	      1.91450336	     -0.58591340	      1.01636688	     -0.00504952	    -39.63488197	      4.71796747	     -8.61083105	     -6.21691246	     15.35758614	     -4.83630815	     13.67003310	     -6.46204719	     -3.22620565	     -7.61241598	     -3.46585121	     -1.77523787	      0.16776900	     27.45829585	    -42.50606623	      2.07608882	      1.43804460
      2.01000000	     25.24353856	     -2.70899320	      1.81688008	     -0.58038948	      1.01594621	     -0.00551193	    -39.72611591	      4.53021694	     -8.62907049	     -6.77485570	     15.46414894	     -4.73858947	     13.74107867	     -6.38346623	     -3.14003842	     -7.56987509	     -4.13795146	     -2.27020294	     -0.25825181	     27.44020247	    -42.54129002	      1.90190203	      1.40999779
      2.01500000	     25.31022750	     -2.66705969	      1.76397038	     -0.57488431	      1.01558721	     -0.00607495	    -39.82868978	      4.36581361	     -8.67944730	     -7.34173941	     15.51380441	     -4.53229270	     13.93105168	     -6.29310355	     -3.06032655	     -7.37675040	     -4.89341760	     -2.76435672	     -0.99111284	     27.40978982	    -42.59830973	      1.76262450	      1.34068256
      2.02000000	     25.37928526	     -2.61436487	      1.72042623	     -0.56937662	      1.01528013	     -0.00662341	    -39.90730268	      4.19702341	     -8.73309489	     -7.95427727	     15.51333775	     -4.39399941	     14.24688766	     -6.18747272	     -2.97952142	     -7.17396382	     -5.70426200	     -3.22799371	     -1.66458610	     27.36120836	    -42.65923731	      1.61339933	      1.25271751
      2.02500000	     25.42318463	     -2.54338569	      1.68389020	     -0.56379628	      1.01499818	     -0.00716169	    -39.94058256	      4.01340977	     -8.84462981	     -8.58809991	     15.23085317	     -4.39291331	     17.01001634	     -6.03300847	     -2.88847945	     -6.99552577	     -6.58780486	     -3.60015881	     -2.24633348	     27.26705456	    -42.68473673	      1.44612226	      1.16540485
      2.03000000	     25.45990224	     -2.50437714	      1.60525490	     -0.55827773	      1.01479288	     -0.00759100	    -39.92590114	      3.83818562	     -8.75861042	     -9.29386854	     15.16068855	     -4.43521800	     17.13285801	     -5.86966361	     -2.83191796	     -6.83576462	     -7.49112631	     -3.95366503	     -2.89095970	     27.13057271	    -42.71233517	      1.27132480	      1.11331976
      2.03500000	     25.49261134	     -2.42674305	      1.61423652	     -0.55272605	      1.01461731	     -0.00819583	    -39.89570984	      3.66831643	     -8.88595632	    -10.00824840	     14.84991575	     -4.39616269	     19.36550016	     -5.66543103	     -2.73936710	     -6.54986749	     -8.47534595	     -4.10432810	     -3.45498678	     25.98826118	    -42.73269782	      1.12280588	      0.98537433
      2.04000000	     25.50667780	     -2.39881840	      1.55757730	     -0.54720932	      1.01450657	     -0.00865048	    -39.79208513	      3.50969233	     -8.79084481	    -10.81479620	     14.69352545	     -4.49738965	     19.50394929	     -5.45207763	     -2.69875798	     -6.34867898	     -9.45821514	     -4.25588962	     -4.06657627	     25.81351496	    -42.73703740	      0.96784380	      0.92697819
      2.04500000	     25.53133280	     -2.31973705	      1.59012322	     -0.54163523	      1.01445067	     -0.00925865	    -39.69528133	      3.34750899	     -8.91948975	    -11.61558865	     14.23668793	     -4.56356578	     22.36328275	     -5.23090535	     -2.60839982	     -6.04768866	    -10.49547057	     -4.12014086	     -4.47904921	     23.74958359	    -42.74600707	      0.82526142	      0.78885946
      2.05000000	     25.49612131	     -2.31297454	      1.59780897	     -0.53615960	      1.01439819	     -0.00978121	    -39.46786581	      3.24007879	     -8.85429540	    -12.52577250	     13.96694802	     -4.68673367	     22.52622650	     -4.92593724	     -2.59777267	     -5.79001936	    -11.56348194	     -4.06893417	     -4.95616292	     23.53539748	    -42.70368326	      0.72308740	      0.72252203
      2.05500000	     25.45711906	     -2.27418635	      1.64411668	     -0.53064875	      1.01439222	     -0.01039915	    -39.20313314	      3.11267914	     -8.91612561	    -13.49686242	     13.65495954	     -4.69933982	     23.01096791	     -4.62861022	     -2.54475392	     -5.46810481	    -12.61784234	     -3.93539361	     -5.43445641	     23.11996907	    -42.65288593	      0.62097577	      0.59995951
      2.06000000	     25.51242320	     -2.20432966	      1.63642388	     -0.52503854	      1.01459743	     -0.01092108	    -39.03528018	      2.92162410	     -8.96566663	    -14.43655113	     12.80870332	     -5.04021322	     27.78380765	     -4.49504154	     -2.46213205	     -5.27890700	    -13.62963592	     -3.29015298	     -5.44879492	     19.41009335	    -42.69170039	      0.45196461	      0.49165558
      2.06500000	     25.49569514	     -2.15182168	      1.65853091	     -0.51948114	      1.01476094	     -0.01149625	    -38.72739993	      2.75608072	     -9.02545249	    -15.49653485	     12.24331806	     -5.21731640	     29.51540375	     -4.27482125	     -2.39444705	     -5.05598217	    -14.64379592	     -2.71814992	     -5.54206172	     16.77833702	    -42.66020477	      0.31883758	      0.38485952
      2.07000000	     25.45368634	     -2.13177331	      1.68627454	     -0.51391978	      1.01496196	     -0.01208795	    -38.34405256	      2.61184319	     -9.06461909	    -16.64076281	     11.78187348	     -5.19802357	     29.68264636	     -4.05585915	     -2.35935721	     -4.85439145	    -15.59717245	     -2.31514312	     -5.71173949	     16.65798953	    -42.59970989	      0.21835019	      0.28999567
      2.07500000	     25.46117890	     -2.05405781	      1.73924597	     -0.50833603	      1.01528496	     -0.01272121	    -38.00165872	      2.42621732	     -9.22723518	    -17.76366275	     10.86595885	     -5.63463593	     33.53588776	     -3.92909182	     -2.25725925	     -4.61392021	    -16.50188575	     -1.68046190	     -5.75185002	     13.99711263	    -42.58831615	      0.08255972	      0.15753981
      2.08000000	     25.43595408	     -2.04223747	      1.70553261	     -0.50276537	      1.01564052	     -0.01324484	    -37.55409588	      2.23011319	     -9.27085810	    -19.00186230	     10.14635794	     -5.78239152	     35.78791520	     -3.81470365	     -2.22879503	     -4.56456312	    -17.34429540	     -0.94352427	     -5.64491254	     11.64718003	    -42.54118832	     -0.04805484	      0.14106674
      2.08500000	     25.38932549	     -1.97995932	      1.71924731	     -0.49718922	      1.01600180	     -0.01385350	    -37.05014559	      2.00578161	     -9.42114104	    -20.30841891	      9.56055237	     -5.80339060	     35.99959974	     -3.71011413	     -2.14209500	     -4.45652185	    -18.10501784	     -0.47827134	     -5.66401860	     11.52433939	    -42.46995718	     -0.19030852	      0.05477523
      2.09000000	     25.39184924	     -1.92640138	      1.71336105	     -0.49161180	      1.01648723	     -0.01442145	    -36.58374050	      1.78051439	     -9.52828412	    -21.57496987	      8.51440857	     -6.34565175	     40.00819937	     -3.72488469	     -2.06360192	     -4.39165024	    -18.76948818	      0.27554115	     -5.54817669	      9.22151923	    -42.44884689	     -0.33781806	     -0.02692367
      2.09500000	     25.35465482	     -1.87145268	      1.65566804	     -0.48604413	      1.01699063	     -0.01496293	    -36.01204695	      1.49641405	     -9.65270200	    -22.95291741	      7.68149696	     -6.53257970	     42.14324001	     -3.75198522	     -1.97995117	     -4.42294566	    -19.34019082	      0.97040900	     -5.39545505	      7.35056132	    -42.38314770	     -0.51335114	     -0.04351816
